<svg width="47" height="47" viewBox="0 0 47 47" fill="none" xmlns="http://www.w3.org/2000/svg">
	<g clip-path="url(#clip0_300_579)">
		<path d="M14.7443 32.2264C15.3066 32.2268 15.7622 32.6859 15.7619 33.2519L15.7617 33.5489C15.7615 33.8025 15.9653 34.0077 16.2174 34.0075C16.4705 34.0074 16.6761 33.8005 16.6762 33.5457L16.6782 30.2787C16.6785 29.7126 17.1346 29.2541 17.6969 29.2545C18.2593 29.2548 18.7149 29.714 18.7145 30.2799L18.7126 33.5471C18.7117 34.9327 17.5954 36.0563 16.2187 36.0572C14.841 36.058 13.7245 34.9342 13.7253 33.5476L13.7255 33.2506C13.7258 32.6845 14.1819 32.226 14.7443 32.2264Z" fill="#473366" />
		<path d="M20.3602 28.4992C20.9225 28.4992 21.3783 28.9579 21.3783 29.5239L21.3783 33.6146C21.3783 34.1806 20.9225 34.6394 20.3601 34.6394C19.7978 34.6394 19.342 34.1807 19.342 33.6147L19.342 29.524C19.342 28.958 19.7979 28.4992 20.3602 28.4992Z" fill="#473366" />
		<path d="M25.6861 28.4956C26.2484 28.4956 26.7043 28.9544 26.7043 29.5204L26.7042 33.5831C26.7042 34.1491 26.2484 34.608 25.686 34.6079C25.1237 34.6079 24.6678 34.1491 24.6678 33.5831L24.6679 29.5204C24.6678 28.9544 25.1237 28.4956 25.6861 28.4956Z" fill="#473366" />
		<path d="M23.0321 31.9319C23.5943 31.9382 24.045 32.402 24.0388 32.968L24.0027 36.2352C23.9964 36.8012 23.5355 37.2549 22.9733 37.2486C22.411 37.2423 21.9602 36.7784 21.9665 36.2124L22.0026 32.9453C22.0088 32.3792 22.4697 31.9256 23.0321 31.9319Z" fill="#473366" />
		<path d="M28.3494 29.2951C28.9119 29.2954 29.3675 29.7545 29.3671 30.3205L29.3651 33.5877C29.365 33.8414 29.5687 34.0465 29.8208 34.0463C30.0738 34.0462 30.2794 33.8392 30.2796 33.5846L30.2798 33.2875C30.2802 32.7215 30.7362 32.2631 31.2986 32.2635C31.8609 32.2637 32.3165 32.7228 32.3161 33.2888L32.3159 33.5858C32.3151 34.9715 31.1988 36.0952 29.822 36.096C28.4444 36.0968 27.3279 34.973 27.3287 33.5863L27.3308 30.3193C27.3311 29.7533 27.7871 29.2947 28.3494 29.2951Z" fill="#473366" />
		<path fill-rule="evenodd" clip-rule="evenodd" d="M18.4712 7.01313L18.5996 6.88401L19.123 6.35724C19.8463 5.62908 20.4602 5.01117 21.0155 4.58421C21.6062 4.13006 22.2488 3.79648 23.0345 3.79485C23.8211 3.79317 24.464 4.12468 25.0545 4.57758C25.6087 5.00263 26.2205 5.61861 26.9404 6.34317L27.4621 6.86828L27.5907 6.99757C28.4561 7.86761 29.0899 8.50458 29.4288 9.33191C29.7677 10.1586 29.7652 11.0612 29.7618 12.295L29.7614 12.4783L29.7522 16.8478L29.8481 16.8684C30.68 17.047 31.3615 17.1934 31.913 17.358C32.4871 17.5293 32.9891 17.7388 33.444 18.0781C34.1675 18.6175 34.7294 19.3538 35.0748 20.2009C35.2065 20.524 35.2779 20.9206 35.3239 21.2893C35.3726 21.678 35.4028 22.1224 35.4223 22.5839C35.4607 23.5018 35.4586 24.554 35.4567 25.4847L35.4567 25.4982L35.4563 25.6393C35.4536 26.9396 34.1232 27.861 32.9089 27.3362C32.2397 27.0469 31.9814 26.9372 31.7196 26.8604C31.4746 26.7887 31.2242 26.7371 30.9708 26.7064C30.7036 26.674 30.427 26.6723 29.7217 26.6738L28.9601 26.7246C28.8993 26.8005 28.8339 26.8737 28.7638 26.9442C28.2081 27.5035 27.521 27.7271 26.7845 27.8284C26.0928 27.9234 25.2261 27.9253 24.2055 27.9273L21.7793 27.9325C20.7589 27.9347 19.892 27.9365 19.2007 27.8445C18.4647 27.7464 17.7758 27.5255 17.2196 26.9656C17.1357 26.8812 17.0587 26.7929 16.9883 26.7009L15.6711 26.7036C15.5901 26.7038 15.5588 26.7039 15.5285 26.7044C14.9309 26.7138 14.3397 26.8378 13.7868 27.0698C13.7587 27.0816 13.7299 27.0941 13.6554 27.1266L13.214 27.3189C11.9456 27.8716 10.5269 26.9385 10.5298 25.5425L10.5299 25.529C10.5318 24.5983 10.534 23.5462 10.5765 22.6281C10.5978 22.1665 10.6299 21.7221 10.6802 21.3333C10.7278 20.9643 10.8007 20.568 10.9334 20.2453C11.2818 19.3985 11.8454 18.6616 12.5691 18.1206C13.0239 17.7806 13.5255 17.5692 14.1 17.3957C14.6521 17.2288 15.334 17.0796 16.167 16.8973L16.2706 16.8747L16.2797 12.4983L16.2801 12.3159C16.2819 11.0811 16.2832 10.1793 16.625 9.35224C16.9666 8.52563 17.6013 7.88757 18.4712 7.01313ZM29.7478 18.9428C30.4355 19.0914 30.9352 19.204 31.3344 19.3231C31.7869 19.4581 32.0406 19.5823 32.2319 19.725C32.648 20.0352 32.9823 20.4675 33.1911 20.9793C33.2164 21.0413 33.2623 21.2156 33.3036 21.5454C33.3423 21.855 33.3695 22.2368 33.3876 22.6705C33.422 23.4877 33.4224 24.4305 33.4207 25.3268C32.9578 25.1276 32.6301 24.9925 32.2885 24.8924C31.9372 24.7896 31.5781 24.7157 31.2147 24.6715C30.8049 24.6218 30.3937 24.6227 29.7487 24.6242L29.6793 24.6243C29.6847 24.5646 29.6896 24.5046 29.6941 24.4444C29.7376 23.851 29.739 23.139 29.7407 22.3205L29.7478 18.9428ZM20.0395 8.33331C18.9865 9.39323 18.6723 9.73486 18.5052 10.1394C18.3382 10.5435 18.3192 11.0067 18.3161 12.5026L18.2955 22.3115C18.2938 23.1493 18.293 23.7785 18.3258 24.285C18.3589 24.7943 18.4221 25.0867 18.5013 25.2737C18.5463 25.3801 18.5973 25.4537 18.6595 25.5163C18.7724 25.63 18.9575 25.7445 19.4679 25.8126C20.0073 25.8844 20.7358 25.8851 21.8437 25.8827L21.9743 25.8825L21.9793 23.447C21.9806 22.8811 22.4374 22.4232 22.9998 22.4243C23.5621 22.4255 24.017 22.8853 24.0157 23.4513L24.0107 25.8782L24.1327 25.8779C25.2405 25.8755 25.969 25.8717 26.509 25.7976C27.0195 25.7275 27.2078 25.6118 27.3239 25.4949C27.3833 25.4351 27.4316 25.367 27.4742 25.274C27.5569 25.094 27.6256 24.8075 27.6632 24.2936C27.7008 23.7818 27.7027 23.1424 27.7045 22.2828L27.7251 12.4739C27.7282 10.9773 27.711 10.5153 27.5464 10.1134C27.3818 9.71202 27.0714 9.37366 26.0221 8.31757L25.5491 7.84141C24.7672 7.05447 24.252 6.53901 23.8202 6.20775C23.4122 5.89484 23.2003 5.84412 23.0388 5.84445C22.8764 5.84483 22.6626 5.89706 22.2516 6.21305C21.8175 6.54679 21.2994 7.06517 20.5146 7.85514L20.0395 8.33331ZM23.0196 10.9044C21.1948 10.9083 19.7136 12.3991 19.7097 14.2359C19.7058 16.076 21.186 17.5659 23.0143 17.562C24.8391 17.5581 26.3203 16.0672 26.3241 14.2305C26.3279 12.3904 24.8477 10.9006 23.0196 10.9044ZM21.7461 14.2402C21.7475 13.5321 22.3203 12.9556 23.0239 12.954C23.7242 12.9525 24.2893 13.5214 24.2878 14.2262C24.2863 14.9344 23.7135 15.5109 23.01 15.5124C22.3097 15.5139 21.7446 14.945 21.7461 14.2402ZM16.2662 18.9733C15.582 19.1239 15.084 19.2383 14.6856 19.3587C14.2322 19.4957 13.9768 19.6214 13.7833 19.766C13.3639 20.0796 13.0264 20.5151 12.8149 21.0294C12.7889 21.0926 12.7421 21.2678 12.6995 21.5976C12.6594 21.9076 12.6306 22.2895 12.6106 22.7233C12.573 23.537 12.5686 24.4749 12.5666 25.3676L12.8464 25.2457L12.8532 25.2427C12.9189 25.2141 12.9608 25.1958 13.0031 25.178C13.7941 24.8461 14.6403 24.6685 15.4965 24.655C15.5425 24.6543 15.5883 24.6542 15.6603 24.654L16.3117 24.6527C16.3048 24.5751 16.2989 24.4971 16.2939 24.4187C16.256 23.8353 16.2575 23.138 16.2591 22.3381L16.2662 18.9733Z" fill="#473366" />
	</g>
	<defs>
		<clipPath id="clip0_300_579">
			<rect width="32.6878" height="32.6878" fill="white" transform="matrix(0.704805 -0.709401 0.704805 0.709401 0 23.189)" />
		</clipPath>
	</defs>
</svg>
