<svg width="20" height="20" viewBox="0 0 20 20" fill="none" xmlns="http://www.w3.org/2000/svg">
<path d="M11.25 3.125H8.75C8.58424 3.125 8.42527 3.05915 8.30806 2.94194C8.19085 2.82473 8.125 2.66576 8.125 2.5C8.125 2.33424 8.19085 2.17527 8.30806 2.05806C8.42527 1.94085 8.58424 1.875 8.75 1.875H11.25C11.4158 1.875 11.5747 1.94085 11.6919 2.05806C11.8092 2.17527 11.875 2.33424 11.875 2.5C11.875 2.66576 11.8092 2.82473 11.6919 2.94194C11.5747 3.05915 11.4158 3.125 11.25 3.125Z" fill="#EA4335"/>
<path d="M16.25 3.75H3.75C3.58424 3.75 3.42527 3.81585 3.30806 3.93306C3.19085 4.05027 3.125 4.20924 3.125 4.375C3.125 4.54076 3.19085 4.69973 3.30806 4.81694C3.42527 4.93415 3.58424 5 3.75 5H4.375V16.25C4.3755 16.7471 4.5732 17.2238 4.92472 17.5753C5.27625 17.9268 5.75287 18.1245 6.25 18.125H13.75C14.2471 18.1245 14.7238 17.9268 15.0753 17.5753C15.4268 17.2238 15.6245 16.7471 15.625 16.25V5H16.25C16.4158 5 16.5747 4.93415 16.6919 4.81694C16.8092 4.69973 16.875 4.54076 16.875 4.375C16.875 4.20924 16.8092 4.05027 16.6919 3.93306C16.5747 3.81585 16.4158 3.75 16.25 3.75ZM14.375 16.25C14.375 16.4158 14.3092 16.5747 14.1919 16.6919C14.0747 16.8092 13.9158 16.875 13.75 16.875H6.25C6.08424 16.875 5.92527 16.8092 5.80806 16.6919C5.69085 16.5747 5.625 16.4158 5.625 16.25V5H14.375V16.25Z" fill="#FD6E2B"/>
<path d="M8.125 15C7.95924 15 7.80027 14.9342 7.68306 14.8169C7.56585 14.6997 7.5 14.5408 7.5 14.375V7.5C7.5 7.33424 7.56585 7.17527 7.68306 7.05806C7.80027 6.94085 7.95924 6.875 8.125 6.875C8.29076 6.875 8.44973 6.94085 8.56694 7.05806C8.68415 7.17527 8.75 7.33424 8.75 7.5V14.375C8.75 14.5408 8.68415 14.6997 8.56694 14.8169C8.44973 14.9342 8.29076 15 8.125 15ZM11.875 15C11.7092 15 11.5503 14.9342 11.4331 14.8169C11.3158 14.6997 11.25 14.5408 11.25 14.375V7.5C11.25 7.33424 11.3158 7.17527 11.4331 7.05806C11.5503 6.94085 11.7092 6.875 11.875 6.875C12.0408 6.875 12.1997 6.94085 12.3169 7.05806C12.4342 7.17527 12.5 7.33424 12.5 7.5V14.375C12.5 14.5408 12.4342 14.6997 12.3169 14.8169C12.1997 14.9342 12.0408 15 11.875 15Z" fill="#EA4335"/>
</svg>
