<svg width="17" height="17" viewBox="0 0 17 17" fill="none" xmlns="http://www.w3.org/2000/svg">
<path d="M3.1844 5.27051C2.51271 5.75004 1.96814 6.2628 1.55084 6.71473C0.607403 7.73644 0.607403 9.26333 1.55084 10.285C2.77441 11.6102 5.09214 13.4582 8.50008 13.4582C9.41794 13.4582 10.2567 13.3242 11.0163 13.1024L9.83848 11.9246C9.41638 11.9997 8.97027 12.0416 8.50008 12.0416C5.6433 12.0416 3.67514 10.4974 2.59165 9.32396C2.14935 8.84498 2.14935 8.15478 2.59165 7.67581C3.00167 7.23176 3.53839 6.7346 4.20202 6.28814L3.1844 5.27051Z" fill="#473366"/>
<path d="M6.04419 8.13037C6.02618 8.25093 6.01685 8.37425 6.01685 8.49984C6.01685 9.86905 7.12681 10.979 8.49602 10.979C8.62154 10.979 8.74493 10.9697 8.86549 10.9517L6.04419 8.13037Z" fill="#473366"/>
<path d="M10.9553 8.81686L8.17944 6.04103C8.28314 6.02781 8.38883 6.021 8.49614 6.021C9.86535 6.021 10.9753 7.13095 10.9753 8.50016C10.9753 8.60748 10.9685 8.71316 10.9553 8.81686Z" fill="#473366"/>
<path d="M12.8291 10.6906C13.4784 10.2496 14.0047 9.76102 14.4083 9.32391C14.8506 8.84494 14.8506 8.15474 14.4083 7.67576C13.3249 6.50235 11.3567 4.95817 8.49992 4.95817C8.04616 4.95817 7.61485 4.99712 7.20593 5.06736L6.02417 3.88563C6.77307 3.67085 7.59835 3.5415 8.49992 3.5415C11.9078 3.5415 14.2256 5.38958 15.4492 6.71468C16.3926 7.7364 16.3926 9.26328 15.4492 10.285C15.0382 10.7301 14.5037 11.2342 13.846 11.7075L12.8291 10.6906Z" fill="#473366"/>
<path d="M1.42231 2.42404C1.14569 2.14743 1.14569 1.69893 1.42231 1.42231C1.69893 1.14569 2.14743 1.14569 2.42404 1.42231L15.5837 14.582C15.8603 14.8586 15.8603 15.3071 15.5837 15.5837C15.3071 15.8603 14.8586 15.8603 14.5819 15.5837L1.42231 2.42404Z" fill="#473366"/>
</svg>
