<svg width="25" height="25" viewBox="0 0 25 25" fill="none" xmlns="http://www.w3.org/2000/svg">
<path d="M12.5 1.0415C5.60417 1.0415 0 5.479 0 10.9373C0 15.7082 4.28125 19.7915 10.1875 20.6561H10.2708C10.5454 20.6645 10.8141 20.7377 11.0549 20.8699C11.2957 21.0021 11.5018 21.1894 11.6562 21.4165C11.752 21.7046 11.7884 22.0091 11.7633 22.3116C11.7383 22.6142 11.6522 22.9085 11.5104 23.1769C11.4559 23.2794 11.4372 23.3972 11.4573 23.5116C11.4774 23.6259 11.5351 23.7303 11.6213 23.8081C11.7074 23.8859 11.8171 23.9327 11.9329 23.941C12.0487 23.9493 12.164 23.9187 12.2604 23.854L20.3333 18.6457C21.7045 17.866 22.8532 16.7483 23.67 15.399C24.4869 14.0496 24.9448 12.5137 25 10.9373C25 5.479 19.3958 1.0415 12.5 1.0415ZM8.33333 14.5832H5.72917C5.59103 14.5832 5.45856 14.5283 5.36088 14.4306C5.26321 14.3329 5.20833 14.2005 5.20833 14.0623V8.854C5.20833 8.71587 5.26321 8.58339 5.36088 8.48572C5.45856 8.38804 5.59103 8.33317 5.72917 8.33317C5.8673 8.33317 5.99978 8.38804 6.09745 8.48572C6.19513 8.58339 6.25 8.71587 6.25 8.854V13.5415H8.33333C8.47147 13.5415 8.60394 13.5964 8.70162 13.6941C8.79929 13.7917 8.85417 13.9242 8.85417 14.0623C8.85417 14.2005 8.79929 14.3329 8.70162 14.4306C8.60394 14.5283 8.47147 14.5832 8.33333 14.5832ZM10.4167 14.0623C10.4167 14.2005 10.3618 14.3329 10.2641 14.4306C10.1664 14.5283 10.034 14.5832 9.89583 14.5832C9.7577 14.5832 9.62522 14.5283 9.52755 14.4306C9.42987 14.3329 9.375 14.2005 9.375 14.0623V8.854C9.375 8.71587 9.42987 8.58339 9.52755 8.48572C9.62522 8.38804 9.7577 8.33317 9.89583 8.33317C10.034 8.33317 10.1664 8.38804 10.2641 8.48572C10.3618 8.58339 10.4167 8.71587 10.4167 8.854V14.0623ZM15.625 14.0623C15.6244 14.1764 15.5863 14.2871 15.5167 14.3774C15.4471 14.4677 15.3497 14.5327 15.2396 14.5623H15.1042C15.0143 14.5629 14.9258 14.5401 14.8473 14.4963C14.7688 14.4525 14.703 14.3891 14.6562 14.3123L12.5 10.729V14.0623C12.5 14.2005 12.4451 14.3329 12.3475 14.4306C12.2498 14.5283 12.1173 14.5832 11.9792 14.5832C11.841 14.5832 11.7086 14.5283 11.6109 14.4306C11.5132 14.3329 11.4583 14.2005 11.4583 14.0623V8.854C11.4572 8.73945 11.4939 8.62772 11.5627 8.53612C11.6315 8.44451 11.7286 8.37815 11.8389 8.34731C11.9492 8.31646 12.0667 8.32285 12.173 8.36549C12.2793 8.40813 12.3686 8.48464 12.4271 8.58317L14.5833 12.1873V8.854C14.5833 8.71587 14.6382 8.58339 14.7359 8.48572C14.8336 8.38804 14.966 8.33317 15.1042 8.33317C15.2423 8.33317 15.3748 8.38804 15.4725 8.48572C15.5701 8.58339 15.625 8.71587 15.625 8.854V14.0623ZM19.7917 10.9373C19.9298 10.9373 20.0623 10.9922 20.16 11.0899C20.2576 11.1876 20.3125 11.32 20.3125 11.4582C20.3125 11.5963 20.2576 11.7288 20.16 11.8265C20.0623 11.9241 19.9298 11.979 19.7917 11.979H17.7083V13.5415H19.7917C19.9298 13.5415 20.0623 13.5964 20.16 13.6941C20.2576 13.7917 20.3125 13.9242 20.3125 14.0623C20.3125 14.2005 20.2576 14.3329 20.16 14.4306C20.0623 14.5283 19.9298 14.5832 19.7917 14.5832H17.1875C17.0494 14.5832 16.9169 14.5283 16.8192 14.4306C16.7215 14.3329 16.6667 14.2005 16.6667 14.0623V8.854C16.6667 8.71587 16.7215 8.58339 16.8192 8.48572C16.9169 8.38804 17.0494 8.33317 17.1875 8.33317H19.7917C19.9298 8.33317 20.0623 8.38804 20.16 8.48572C20.2576 8.58339 20.3125 8.71587 20.3125 8.854C20.3125 8.99214 20.2576 9.12461 20.16 9.22229C20.0623 9.31997 19.9298 9.37484 19.7917 9.37484H17.7083V10.9373H19.7917Z" fill="#03B900"/>
</svg>
