<svg width="15" height="15" viewBox="0 0 15 15" fill="none" xmlns="http://www.w3.org/2000/svg">
<g clip-path="url(#clip0_650_236)">
<path d="M6.06522 7.82609C6.06522 8.18478 5.77174 8.47826 5.41304 8.47826L4.40217 8.51087C4.23913 8.51087 4.09239 8.46196 3.97826 8.34783L0.195652 4.53261C0.0652174 4.40217 0 4.23913 0 4.05978C0 3.88043 0.0652174 3.71739 0.195652 3.60326L3.60326 0.195652C3.86413 -0.0652174 4.27174 -0.0652174 4.53261 0.195652L8.34783 4.01087C8.6087 4.27174 8.6087 4.67935 8.34783 4.92391C8.08696 5.18478 7.67935 5.16848 7.41848 4.92391L4.05978 1.56522L1.58152 4.04348L4.72826 7.17391H5.39674C5.77174 7.17391 6.06522 7.46739 6.06522 7.82609ZM14.8043 10.4674L11.0217 6.66848C10.8913 6.53804 10.7609 6.50544 10.5978 6.50544L9.58696 6.52174C9.22826 6.52174 8.93478 6.81522 8.93478 7.17391C8.93478 7.53261 9.22826 7.82609 9.58696 7.82609H10.2717L13.4348 10.9565L10.9402 13.4348L7.58152 10.0761C7.32065 9.81522 6.91304 9.81522 6.65217 10.0761C6.3913 10.337 6.3913 10.7446 6.65217 10.9891L10.4674 14.8043C10.5978 14.9348 10.7609 15 10.9402 15C11.1033 15 11.2663 14.9348 11.3967 14.8043L14.8043 11.3967C14.9348 11.2826 15 11.1033 15 10.9402C15 10.7609 14.9348 10.5978 14.8043 10.4674ZM9.94565 3.70109C10.3043 3.70109 10.5978 3.40761 10.5978 3.04891V1.41848C10.5978 1.05978 10.3043 0.766304 9.94565 0.766304C9.58696 0.766304 9.29348 1.05978 9.29348 1.41848V3.04891C9.29348 3.40761 9.58696 3.70109 9.94565 3.70109ZM11.8533 5.70652H13.4837C13.8424 5.70652 14.1359 5.41304 14.1359 5.05435C14.1359 4.69565 13.8424 4.40217 13.4837 4.40217H11.8533C11.4946 4.40217 11.2011 4.69565 11.2011 5.05435C11.2011 5.41304 11.4946 5.70652 11.8533 5.70652ZM5.05435 11.2011C4.69565 11.2011 4.40217 11.4946 4.40217 11.8533V13.4837C4.40217 13.8424 4.69565 14.1359 5.05435 14.1359C5.41304 14.1359 5.70652 13.8424 5.70652 13.4837V11.8533C5.70652 11.4946 5.41304 11.2011 5.05435 11.2011ZM3.04891 9.29348H1.41848C1.05978 9.29348 0.766304 9.58696 0.766304 9.94565C0.766304 10.3043 1.05978 10.5978 1.41848 10.5978H3.04891C3.40761 10.5978 3.70109 10.3043 3.70109 9.94565C3.70109 9.58696 3.40761 9.29348 3.04891 9.29348Z" fill="black"/>
</g>
<defs>
<clipPath id="clip0_650_236">
<rect width="15" height="15" fill="white"/>
</clipPath>
</defs>
</svg>
