<svg width="59" height="59" viewBox="0 0 59 59" fill="none" xmlns="http://www.w3.org/2000/svg">
<path d="M9.83333 31.9582C11.191 31.9582 12.2917 30.8575 12.2917 29.4998C12.2917 28.1421 11.191 27.0415 9.83333 27.0415C8.47563 27.0415 7.375 28.1421 7.375 29.4998C7.375 30.8575 8.47563 31.9582 9.83333 31.9582Z" fill="#473366"/>
<path d="M49.3141 27.0415H19.5191C18.2428 27.0415 17.2083 28.0761 17.2083 29.3523V29.6473C17.2083 30.9236 18.2428 31.9582 19.5191 31.9582H49.3141C50.5903 31.9582 51.6249 30.9236 51.6249 29.6473V29.3523C51.6249 28.0761 50.5903 27.0415 49.3141 27.0415Z" fill="#473366"/>
<path d="M49.3142 39.3335H9.68583C8.4096 39.3335 7.375 40.3681 7.375 41.6443V41.9393C7.375 43.2156 8.4096 44.2502 9.68583 44.2502H49.3142C50.5904 44.2502 51.625 43.2156 51.625 41.9393V41.6443C51.625 40.3681 50.5904 39.3335 49.3142 39.3335Z" fill="#473366"/>
<path d="M49.3142 14.75H9.68583C8.4096 14.75 7.375 15.7846 7.375 17.0608V17.3558C7.375 18.6321 8.4096 19.6667 9.68583 19.6667H49.3142C50.5904 19.6667 51.625 18.6321 51.625 17.3558V17.0608C51.625 15.7846 50.5904 14.75 49.3142 14.75Z" fill="#473366"/>
</svg>
