<svg width="20" height="20" viewBox="0 0 20 20" fill="none" xmlns="http://www.w3.org/2000/svg">
<path fill-rule="evenodd" clip-rule="evenodd" d="M2.57606 7.77091C4.61693 12.2175 8.24865 15.7527 12.7634 17.6683L12.7775 17.6744L13.6498 18.0633C14.7604 18.5585 16.0658 18.2068 16.7778 17.2207L18.233 15.2056C18.3219 15.0824 18.299 14.9113 18.1809 14.816L15.6405 12.7654C15.5142 12.6633 15.3286 12.6871 15.2319 12.8176L14.2432 14.1525C14.0031 14.4766 13.5694 14.5893 13.2021 14.4229C9.82625 12.8944 7.11348 10.18 5.58574 6.80222C5.41947 6.4346 5.53205 6.00072 5.85606 5.76046L7.19019 4.77119C7.32056 4.67453 7.34429 4.48872 7.24241 4.36236L5.19271 1.82018C5.09744 1.70202 4.92645 1.67908 4.80343 1.76793L2.77857 3.23056C1.78652 3.94714 1.43716 5.2643 1.94353 6.37878L2.57537 7.76942L2.57606 7.77091ZM12.0874 19.2431C7.18193 17.1595 3.23637 13.3172 1.0188 8.48452L1.01746 8.48167L0.384297 7.08805C-0.459658 5.23058 0.122615 3.03531 1.77602 1.84101L3.80088 0.378385C4.66199 -0.243621 5.85893 -0.0829699 6.52578 0.744097L8.57545 3.28629C9.28866 4.1708 9.12252 5.47145 8.21005 6.1481L7.44557 6.71498C8.73691 9.22214 10.7836 11.27 13.2892 12.5621L13.8558 11.7972C14.532 10.8841 15.8319 10.7179 16.7159 11.4315L19.2564 13.4821C20.0832 14.1495 20.2435 15.3476 19.6213 16.2092L18.1662 18.2244C16.9794 19.8679 14.8037 20.4539 12.9527 19.6288L12.0874 19.2431Z" fill="#C1C1C1"/>
</svg>
