<svg width="20" height="20" viewBox="0 0 20 20" fill="none" xmlns="http://www.w3.org/2000/svg">
<path d="M10.625 2.5C10.625 2.15483 10.3452 1.875 10 1.875C9.65483 1.875 9.375 2.15483 9.375 2.5V4.16667C9.375 4.51184 9.65483 4.79167 10 4.79167C10.3452 4.79167 10.625 4.51184 10.625 4.16667V2.5Z" fill="#C1C1C1"/>
<path d="M7.50191 3.95911C7.84709 3.9581 8.12609 3.67746 8.12508 3.33228C8.12407 2.9871 7.84343 2.7081 7.49826 2.70911C6.20899 2.71288 5.1645 2.73405 4.32602 2.87632C3.46936 3.02167 2.76618 3.30263 2.20112 3.8677C1.57748 4.49134 1.30072 5.28213 1.16937 6.25915C1.04172 7.20849 1.04173 8.4215 1.04175 9.953V10.047C1.04173 11.5785 1.04172 12.7915 1.16937 13.7408C1.30072 14.7178 1.57748 15.5087 2.20112 16.1323C2.82476 16.7559 3.61555 17.0327 4.59257 17.1641C5.54189 17.2917 6.75489 17.2917 8.28631 17.2917H11.7138C13.2452 17.2917 14.4582 17.2917 15.4076 17.1641C16.3846 17.0327 17.1754 16.7559 17.7991 16.1323C18.4227 15.5087 18.6994 14.7178 18.8308 13.7408C18.9584 12.7915 18.9584 11.5785 18.9584 10.0471V9.953C18.9584 8.42158 18.9584 7.20848 18.8308 6.25915C18.6994 5.28213 18.4227 4.49134 17.7991 3.8677C17.234 3.30263 16.5308 3.02167 15.6742 2.87632C14.8357 2.73405 13.7912 2.71288 12.5019 2.70911C12.1567 2.7081 11.8761 2.9871 11.8751 3.33228C11.8741 3.67746 12.1531 3.9581 12.4982 3.95911C13.8042 3.96293 14.7453 3.98658 15.4651 4.1087C16.1666 4.22774 16.5943 4.43074 16.9152 4.75158C17.2678 5.10426 17.4792 5.5873 17.5919 6.42571C17.7071 7.28209 17.7084 8.411 17.7084 10C17.7084 11.589 17.7071 12.7179 17.5919 13.5743C17.4792 14.4127 17.2678 14.8958 16.9152 15.2484C16.5625 15.6011 16.0794 15.8125 15.2411 15.9252C14.3847 16.0403 13.2557 16.0417 11.6667 16.0417H8.33341C6.7444 16.0417 5.61551 16.0403 4.75912 15.9252C3.92071 15.8125 3.43767 15.6011 3.085 15.2484C2.73232 14.8958 2.52093 14.4127 2.40822 13.5743C2.29307 12.7179 2.29175 11.589 2.29175 10C2.29175 8.411 2.29307 7.28209 2.40822 6.42571C2.52093 5.5873 2.73232 5.10426 3.085 4.75158C3.40585 4.43074 3.83356 4.22774 4.53512 4.1087C5.25487 3.98658 6.19592 3.96293 7.50191 3.95911Z" fill="#C1C1C1"/>
<path d="M6.04175 8.75C6.04175 8.40483 6.32157 8.125 6.66675 8.125H13.3334C13.6786 8.125 13.9584 8.40483 13.9584 8.75C13.9584 9.09517 13.6786 9.375 13.3334 9.375H6.66675C6.32157 9.375 6.04175 9.09517 6.04175 8.75Z" fill="#C1C1C1"/>
<path d="M6.66675 11.0417C6.32157 11.0417 6.04175 11.3215 6.04175 11.6667C6.04175 12.0118 6.32157 12.2917 6.66675 12.2917H11.2501C11.5952 12.2917 11.8751 12.0118 11.8751 11.6667C11.8751 11.3215 11.5952 11.0417 11.2501 11.0417H6.66675Z" fill="#C1C1C1"/>
</svg>
