<svg width="61" height="61" viewBox="0 0 61 61" fill="none" xmlns="http://www.w3.org/2000/svg">
<path d="M58.4411 20.2004C59.4176 19.2243 59.4179 17.6413 58.4419 16.6648L56.6744 14.8967C55.6984 13.9202 54.1154 13.9198 53.1389 14.8959L25.5866 42.4362C24.6102 43.4125 24.6099 44.9955 25.5859 45.972L27.3534 47.74C28.3294 48.7165 29.9124 48.717 30.8889 47.7407L58.4411 20.2004Z" fill="#FD6E2B"/>
<path d="M43.4424 20.2002C44.4186 19.2239 44.4186 17.641 43.4424 16.6647L41.6746 14.8969C40.6984 13.9206 39.1154 13.9206 38.1391 14.8969L14.2347 38.8013L7.29045 31.857C6.31415 30.8808 4.73122 30.8808 3.75492 31.857L1.98715 33.6248C1.01083 34.6013 1.01084 36.184 1.98715 37.1605L12.4669 47.6403C13.4432 48.6165 15.0261 48.6165 16.0024 47.6403L43.4424 20.2002Z" fill="#FD6E2B"/>
</svg>
