<svg width="25" height="25" viewBox="0 0 25 25" fill="none" xmlns="http://www.w3.org/2000/svg">
<path d="M12.5 1.04169C5.60417 1.04169 0 5.47919 0 10.9375C0 15.7084 4.28125 19.7917 10.1875 20.6563L10.2708 20.6563C10.5454 20.6646 10.8141 20.7379 11.0549 20.8701C11.2957 21.0022 11.5018 21.1896 11.6562 21.4167C11.752 21.7048 11.7884 22.0093 11.7633 22.3118C11.7383 22.6143 11.6522 22.9087 11.5104 23.1771C11.4559 23.2796 11.4372 23.3974 11.4573 23.5117C11.4774 23.6261 11.5351 23.7305 11.6213 23.8083C11.7074 23.8861 11.8171 23.9328 11.9329 23.9412C12.0487 23.9495 12.164 23.9189 12.2604 23.8542L20.3333 18.6459C21.7045 17.8662 22.8532 16.7484 23.67 15.3991C24.4869 14.0498 24.9448 12.5139 25 10.9375C25 5.47919 19.3958 1.04169 12.5 1.04169ZM8.33333 14.5834L5.72917 14.5834C5.59103 14.5834 5.45856 14.5285 5.36088 14.4308C5.26321 14.3331 5.20833 14.2007 5.20833 14.0625L5.20833 8.85419C5.20833 8.71605 5.26321 8.58358 5.36088 8.4859C5.45856 8.38823 5.59103 8.33335 5.72917 8.33335C5.8673 8.33335 5.99978 8.38823 6.09745 8.4859C6.19513 8.58358 6.25 8.71605 6.25 8.85419L6.25 13.5417L8.33333 13.5417C8.47147 13.5417 8.60394 13.5966 8.70162 13.6942C8.79929 13.7919 8.85417 13.9244 8.85417 14.0625C8.85417 14.2007 8.79929 14.3331 8.70162 14.4308C8.60394 14.5285 8.47147 14.5834 8.33333 14.5834ZM10.4167 14.0625C10.4167 14.2007 10.3618 14.3331 10.2641 14.4308C10.1664 14.5285 10.034 14.5834 9.89583 14.5834C9.7577 14.5834 9.62522 14.5285 9.52755 14.4308C9.42987 14.3331 9.375 14.2007 9.375 14.0625L9.375 8.85419C9.375 8.71605 9.42987 8.58358 9.52755 8.4859C9.62522 8.38823 9.7577 8.33335 9.89583 8.33335C10.034 8.33335 10.1664 8.38823 10.2641 8.4859C10.3618 8.58358 10.4167 8.71605 10.4167 8.85419L10.4167 14.0625ZM15.625 14.0625C15.6244 14.1766 15.5863 14.2872 15.5167 14.3776C15.4471 14.4679 15.3497 14.5329 15.2396 14.5625L15.1042 14.5625C15.0143 14.563 14.9258 14.5403 14.8473 14.4965C14.7688 14.4527 14.703 14.3893 14.6562 14.3125L12.5 10.7292L12.5 14.0625C12.5 14.2007 12.4451 14.3331 12.3475 14.4308C12.2498 14.5285 12.1173 14.5834 11.9792 14.5834C11.841 14.5834 11.7086 14.5285 11.6109 14.4308C11.5132 14.3331 11.4583 14.2007 11.4583 14.0625L11.4583 8.85419C11.4572 8.73963 11.4939 8.6279 11.5627 8.5363C11.6315 8.4447 11.7286 8.37834 11.8389 8.34749C11.9492 8.31665 12.0667 8.32304 12.173 8.36568C12.2793 8.40832 12.3686 8.48483 12.4271 8.58335L14.5833 12.1875L14.5833 8.85419C14.5833 8.71605 14.6382 8.58358 14.7359 8.4859C14.8336 8.38823 14.966 8.33335 15.1042 8.33335C15.2423 8.33335 15.3748 8.38823 15.4725 8.4859C15.5701 8.58358 15.625 8.71605 15.625 8.85419L15.625 14.0625ZM19.7917 10.9375C19.9298 10.9375 20.0623 10.9924 20.16 11.0901C20.2576 11.1877 20.3125 11.3202 20.3125 11.4584C20.3125 11.5965 20.2576 11.729 20.16 11.8266C20.0623 11.9243 19.9298 11.9792 19.7917 11.9792L17.7083 11.9792L17.7083 13.5417L19.7917 13.5417C19.9298 13.5417 20.0623 13.5966 20.16 13.6942C20.2576 13.7919 20.3125 13.9244 20.3125 14.0625C20.3125 14.2007 20.2576 14.3331 20.16 14.4308C20.0623 14.5285 19.9298 14.5834 19.7917 14.5834L17.1875 14.5834C17.0494 14.5834 16.9169 14.5285 16.8192 14.4308C16.7215 14.3331 16.6667 14.2007 16.6667 14.0625L16.6667 8.85419C16.6667 8.71605 16.7215 8.58358 16.8192 8.4859C16.9169 8.38823 17.0494 8.33335 17.1875 8.33335L19.7917 8.33335C19.9298 8.33335 20.0623 8.38823 20.16 8.4859C20.2576 8.58358 20.3125 8.71605 20.3125 8.85419C20.3125 8.99232 20.2576 9.1248 20.16 9.22247C20.0623 9.32015 19.9298 9.37502 19.7917 9.37502L17.7083 9.37502L17.7083 10.9375L19.7917 10.9375Z" fill="white"/>
</svg>
