<svg width="60" height="60" viewBox="0 0 60 60" fill="none" xmlns="http://www.w3.org/2000/svg">
<path fill-rule="evenodd" clip-rule="evenodd" d="M55 30C55 43.807 43.807 55 30 55C16.1929 55 5 43.807 5 30C5 16.1929 16.1929 5 30 5C43.807 5 55 16.1929 55 30ZM30 19.375C28.4468 19.375 27.1875 20.6342 27.1875 22.1875C27.1875 23.223 26.348 24.0625 25.3125 24.0625C24.277 24.0625 23.4375 23.223 23.4375 22.1875C23.4375 18.5631 26.3758 15.625 30 15.625C33.6242 15.625 36.5625 18.5631 36.5625 22.1875C36.5625 23.9646 35.8538 25.58 34.7075 26.76C34.4768 26.9973 34.2568 27.2173 34.0468 27.427C33.5073 27.966 33.0345 28.4383 32.6198 28.9713C32.0723 29.6748 31.875 30.192 31.875 30.625V32.5C31.875 33.5355 31.0355 34.375 30 34.375C28.9645 34.375 28.125 33.5355 28.125 32.5V30.625C28.125 28.987 28.8875 27.661 29.6605 26.668C30.2322 25.9333 30.951 25.2158 31.5345 24.6337C31.7105 24.458 31.874 24.2947 32.0175 24.1469C32.5115 23.6386 32.8125 22.9501 32.8125 22.1875C32.8125 20.6342 31.5532 19.375 30 19.375ZM30 42.5C31.3807 42.5 32.5 41.3807 32.5 40C32.5 38.6193 31.3807 37.5 30 37.5C28.6193 37.5 27.5 38.6193 27.5 40C27.5 41.3807 28.6193 42.5 30 42.5Z" fill="#FD6E2B"/>
</svg>
